<?xml version="1.0" encoding="UTF-8"?>
<svg width="1200pt" height="1200pt" version="1.1" viewBox="0 0 1200 1200" xmlns="http://www.w3.org/2000/svg">
 <g>
  <path d="m375 562.5h-187.5c-103.35 0-187.5-84.148-187.5-187.5v-187.5c0-103.35 84.148-187.5 187.5-187.5h187.5c103.35 0 187.5 84.148 187.5 187.5v187.5c0 103.35-84.148 187.5-187.5 187.5zm-187.5-487.5c-62.023 0-112.5 50.477-112.5 112.5v187.5c0 62.023 50.477 112.5 112.5 112.5h187.5c62.023 0 112.5-50.477 112.5-112.5v-187.5c0-62.023-50.477-112.5-112.5-112.5z"/>
  <path d="m1012.5 562.5h-187.5c-103.43 0-187.5-84.074-187.5-187.5v-187.5c0-103.35 84.074-187.5 187.5-187.5h187.5c103.43 0 187.5 84.148 187.5 187.5v187.5c0 103.43-84.074 187.5-187.5 187.5zm-187.5-487.5c-62.023 0-112.5 50.477-112.5 112.5v187.5c0 62.023 50.477 112.5 112.5 112.5h187.5c62.023 0 112.5-50.477 112.5-112.5v-187.5c0-62.023-50.477-112.5-112.5-112.5z"/>
  <path d="m1012.5 1200h-187.5c-103.43 0-187.5-84.074-187.5-187.5v-187.5c0-103.43 84.074-187.5 187.5-187.5h187.5c103.43 0 187.5 84.074 187.5 187.5v187.5c0 103.43-84.074 187.5-187.5 187.5zm-187.5-487.5c-62.023 0-112.5 50.477-112.5 112.5v187.5c0 62.023 50.477 112.5 112.5 112.5h187.5c62.023 0 112.5-50.477 112.5-112.5v-187.5c0-62.023-50.477-112.5-112.5-112.5z"/>
  <path d="m375 1200h-187.5c-103.43 0-187.5-84.074-187.5-187.5v-187.5c0-103.43 84.074-187.5 187.5-187.5h187.5c103.43 0 187.5 84.074 187.5 187.5v187.5c0 103.43-84.074 187.5-187.5 187.5zm-187.5-487.5c-62.023 0-112.5 50.477-112.5 112.5v187.5c0 62.023 50.477 112.5 112.5 112.5h187.5c62.023 0 112.5-50.477 112.5-112.5v-187.5c0-62.023-50.477-112.5-112.5-112.5z"/>
 </g>
</svg>
