<?xml version="1.0" encoding="UTF-8"?>
<svg width="1200pt" height="1200pt" version="1.1" viewBox="0 0 1200 1200" xmlns="http://www.w3.org/2000/svg">
 <path d="m859.21 572.42c6.8008-34.762 4.2812-87.789-7.5547-159.08-49.879 10.078-96.605 34.637-140.19 73.684-10.578 9.8242-15.996 14.863-16.246 15.113 24.688 117.64-5.1641 226.96-89.555 327.98 146.11-55.168 230.62-141.07 253.54-257.7m-505.95-159.08c-11.84 71.289-14.359 124.32-7.5586 159.08 22.926 116.63 109.45 202.53 259.59 257.7-88.418-115.37-119.28-223.69-92.578-324.96l-19.27-18.137c-43.578-39.047-90.309-63.605-140.18-73.684z"/>
 <path transform="matrix(7.5571 0 0 7.5571 222.14 222.14)" d="m62.6 37.05c0.033081-0.033081 0.75002-0.69988 2.1498-1.9999 5.767-5.1669 11.95-8.4166 18.55-9.7502 1.5662 9.4333 1.8996 16.45 0.99968 21.05-3.0331 15.433-14.217 26.8-33.55 34.1h-0.049622c-19.867-7.3001-31.317-18.667-34.35-34.1-0.89991-4.5998-0.56652-11.617 1.0002-21.05 6.5997 1.3336 12.783 4.5833 18.55 9.7502l2.5498 2.3999c0.367-1.3667 0.65025-2.3002 0.85029-2.8 2.3999-7.3668 6.15-13.267 11.25-17.7 5.967 7.1668 9.7337 13.067 11.3 17.7l0.75002 2.3999c3.2668 15.567-0.68334 30.033-11.85 43.4-0.005686-0.15352-0.013956-0.30342-0.024811-0.45022l-0.024811 0.45022c-11.7-15.266-15.783-29.6-12.25-43 7.0003 8.4331 10.917 17.417 11.75 26.95 0.70039-10.533 4.8335-19.65 12.4-27.35zm-11.85 43.4v-0.75002l-0.024811 0.27499v0.024811m0.024811 0 0.70039-0.5996c-0.13336 0.2662-0.367 0.61666-0.70039 1.0498m-0.54998-16.05c0.16851 5.8678 0.31892 9.684 0.45022 11.45 0.12302 1.7425 0.14835 3.1174 0.07495 4.1248" fill="none" stroke="#000" stroke-linecap="round" stroke-linejoin="round" stroke-width="1.5"/>
</svg>
