<?xml version="1.0" encoding="UTF-8"?>
<svg width="1200pt" height="1200pt" version="1.1" viewBox="0 0 1200 1200" xmlns="http://www.w3.org/2000/svg">
 <g fill="#fff">
  <path d="m1114.5 245.06-456.56 456.56c-30.27 31.82-85.605 31.828-115.88 0l-456.56-456.38c-6.75 11.062-10.5 24-10.5 37.875v633.75c0 41.25 33.562 75 75 75h900c41.438 0 75-33.75 75-75v-633.75c0-13.875-3.75-27-10.5-38.062z"/>
  <path d="m568.5 675.19c16.875 16.688 46.125 16.688 63 0l456.38-456.38c-11.062-6.9375-24.188-10.688-37.875-10.688h-900c-13.688 0-26.812 3.75-37.875 10.5z"/>
 </g>
</svg>
