<?xml version="1.0" encoding="UTF-8"?>
<svg width="1200pt" height="1200pt" version="1.1" viewBox="0 0 1200 1200" xmlns="http://www.w3.org/2000/svg">
 <g fill="#fff">
  <path d="m600 78c-288.29 0-522 233.71-522 522s233.71 522 522 522 522-233.71 522-522-233.71-522-522-522zm281.59 822.9c-52.297 52.309-134.44 60.121-178.75 60.121-12.926 0-23.051-0.64844-29.027-1.1406l-65.328 65.328c-1.1055 1.1172-2.4375 1.9922-3.9102 2.6055-1.4531 0.58594-3.0156 0.91016-4.5742 0.91016s-3.1211-0.32422-4.5859-0.92578c-1.4766-0.61328-2.7969-1.4883-3.9102-2.6055l-65.328-65.328c-5.9648 0.50391-16.105 1.1406-29.027 1.1406-44.305 0-126.45-7.8125-178.75-60.121-74.734-74.723-59.09-208.08-58.379-213.72 0.68359-5.4492 4.9688-9.7422 10.414-10.43 0.57422-0.070313 14.184-1.7383 34.992-1.7383 44.305 0 126.43 7.8125 178.75 60.121 66.816 66.816 61.379 180.41 58.98 207.78l44.844 44.859v-278.33c-125.5-6.3125-225.73-110.09-225.73-237.12v-123.31c0-6.625 5.3633-12 12-12 31.691 0 61.883 6.3477 89.555 17.652 19.777-122.26 125.44-185.55 130.13-188.29 0.49219-0.28906 1.0312-0.3125 1.5352-0.52734 0.73047-0.30078 1.4414-0.60156 2.2188-0.75781 0.79297-0.15625 1.5586-0.15625 2.3633-0.15625 0.73047 0 1.4414 0 2.1719 0.14453 0.82812 0.15625 1.5703 0.46875 2.3398 0.80469 0.48047 0.20312 0.99609 0.22656 1.4531 0.49219 4.6914 2.7344 110.29 66.012 130.11 188.29 27.672-11.305 57.887-17.664 89.578-17.664 6.6367 0 12 5.375 12 12v123.31c0 127.03-100.23 230.81-225.73 237.12v278.32l44.844-44.844c-2.3984-27.371-7.8359-140.96 58.98-207.78 52.309-52.309 134.44-60.121 178.75-60.121 20.82 0 34.414 1.668 34.992 1.7383 5.4492 0.68359 9.7422 4.9805 10.414 10.43 0.70703 5.6641 16.344 139.02-58.379 213.74z"/>
  <path d="m305.44 699.01c-9.1797 0-16.859 0.34766-22.402 0.71875-1.9688 30.84-3.3008 128.54 52.344 184.2 46.188 46.188 121.19 53.09 161.77 53.09 2.125 0 4.1523-0.023437 6.1211-0.058593l-70.621-70.621c-4.6914-4.6914-4.6914-12.277 0-16.969s12.277-4.6914 16.969 0l70.535 70.535c0.625-40.703-4.9688-119.83-52.945-167.82-46.191-46.176-121.18-53.074-161.77-53.074z"/>
  <path d="m386.27 361.32v110.99c0 113.82 89.438 207.16 201.73 213.39v-110.98c0-113.83-89.438-207.16-201.73-213.41z"/>
  <path d="m612 574.73v110.98c112.29-6.2539 201.73-99.574 201.73-213.39v-110.99c-112.29 6.25-201.73 99.574-201.73 213.41z"/>
  <path d="m713.44 365.28c-13.035-99.289-91.094-159.1-113.44-174.27-22.344 15.156-100.46 74.988-113.46 174.24 53.258 28.656 94.273 77.051 113.46 135.31 19.188-58.234 60.191-106.63 113.44-135.29z"/>
  <path d="m894.56 699.01c-40.598 0-115.59 6.8984-161.77 53.09-48.098 48.098-53.641 127.19-52.98 167.84l70.57-70.57c4.6914-4.6914 12.277-4.6914 16.969 0s4.6914 12.277 0 16.969l-70.621 70.621c1.957 0.035156 3.9844 0.058594 6.1211 0.058594 40.598 0 115.6-6.8984 161.77-53.09 55.656-55.656 54.312-153.35 52.344-184.2-5.5391-0.375-13.223-0.72266-22.402-0.72266z"/>
 </g>
</svg>
